HIERARCHY
ROOT Hips
{
 OFFSET 0.000000 0.000000 0.000000
 CHANNELS 6 Xposition Yposition Zposition Yrotation Xrotation Zrotation
 JOINT Chest
 {
  OFFSET 0.000000 9.857222 0.000240
  CHANNELS 3 Yrotation Xrotation Zrotation
  JOINT Chest2
  {
   OFFSET 0.000000 10.876940 -0.000436
   CHANNELS 3 Yrotation Xrotation Zrotation
   JOINT Chest3
   {
    OFFSET 0.000000 9.827798 0.000000
    CHANNELS 3 Yrotation Xrotation Zrotation
    JOINT Chest4
    {
     OFFSET 0.000000 9.827798 0.000000
     CHANNELS 3 Yrotation Xrotation Zrotation
     JOINT Neck
     {
      OFFSET 0.000000 13.831992 0.000000
      CHANNELS 3 Yrotation Xrotation Zrotation
      JOINT Head
      {
       OFFSET 0.000000 9.147643 -0.001036
       CHANNELS 3 Yrotation Xrotation Zrotation
       End Site
       {
        OFFSET 0.000000 17.515799 -0.000541
       }
      }
     }
     JOINT RightCollar
     {
      OFFSET -3.001579 7.717577 0.000000
      CHANNELS 3 Yrotation Xrotation Zrotation
      JOINT RightShoulder
      {
       OFFSET -14.002642 0.000000 0.000000
       CHANNELS 3 Yrotation Xrotation Zrotation
       JOINT RightElbow
       {
        OFFSET -30.053852 0.000000 0.000000
        CHANNELS 3 Yrotation Xrotation Zrotation
        JOINT RightWrist
        {
         OFFSET -24.564923 0.000000 -0.000000
         CHANNELS 3 Yrotation Xrotation Zrotation
         End Site
         {
          OFFSET -18.334355 0.000000 0.000000
         }
        }
       }
      }
     }
     JOINT LeftCollar
     {
      OFFSET 3.001579 7.717577 0.000000
      CHANNELS 3 Yrotation Xrotation Zrotation
      JOINT LeftShoulder
      {
       OFFSET 14.002642 0.000000 0.000000
       CHANNELS 3 Yrotation Xrotation Zrotation
       JOINT LeftElbow
       {
        OFFSET 30.053852 0.000000 0.000000
        CHANNELS 3 Yrotation Xrotation Zrotation
        JOINT LeftWrist
        {
         OFFSET 24.564923 0.000000 -0.000000
         CHANNELS 3 Yrotation Xrotation Zrotation
         End Site
         {
          OFFSET 18.334355 0.000000 0.000000
         }
        }
       }
      }
     }
    }
   }
  }
 }
 JOINT RightHip
 {
  OFFSET -8.003235 -0.001175 -0.000120
  CHANNELS 3 Yrotation Xrotation Zrotation
  JOINT RightKnee
  {
   OFFSET 0.000000 -41.759727 0.000113
   CHANNELS 3 Yrotation Xrotation Zrotation
   JOINT RightAnkle
   {
    OFFSET 0.000000 -40.728748 0.000159
    CHANNELS 3 Yrotation Xrotation Zrotation
    JOINT RightToe
    {
     OFFSET 0.000000 -6.515296 14.732841
     CHANNELS 3 Yrotation Xrotation Zrotation
     End Site
     {
      OFFSET 0.000000 -1.502839 6.412115
     }
    }
   }
  }
 }
 JOINT LeftHip
 {
  OFFSET 8.003235 -0.001175 -0.000120
  CHANNELS 3 Yrotation Xrotation Zrotation
  JOINT LeftKnee
  {
   OFFSET 0.000000 -41.759727 0.000113
   CHANNELS 3 Yrotation Xrotation Zrotation
   JOINT LeftAnkle
   {
    OFFSET 0.000000 -40.728748 0.000159
    CHANNELS 3 Yrotation Xrotation Zrotation
    JOINT LeftToe
    {
     OFFSET 0.000000 -6.515296 14.732841
     CHANNELS 3 Yrotation Xrotation Zrotation
     End Site
     {
      OFFSET 0.000000 -1.502839 6.412115
     }
    }
   }
  }
 }
}
MOTION
Frames: 9
Frame Time: 0.016667
17.433688 90.430034 20.567447 -28.633030 -12.709417 -0.119093 2.259217 4.210792 -1.123972 0.899439 1.989800 -0.480680 0.899439 1.989800 -0.480680 0.676078 1.491648 -0.363404 -8.169201 23.768121 2.705658 -15.358509 8.665042 6.903235 -2.197025 4.427516 2.969902 63.195901 15.006164 -30.271317 17.328213 -6.901387 -12.859371 -2.365428 1.576205 -13.901510 -27.579331 10.744900 -10.760447 -27.218045 11.091278 -56.380328 -25.130133 -11.216122 -12.749088 4.428026 11.389443 6.089830 -3.203563 22.371689 -8.615857 -1.051484 -5.515859 6.213791 -1.054029 -4.049174 1.161760 -0.523518 0.141767 -0.247585 -10.734392 13.838593 -1.634832 8.286957 3.036842 -0.448485 1.928001 -4.089516 -0.547938 0.054524 0.037018 0.017357
17.435585 90.430890 20.546801 -28.646105 -12.711707 -0.125785 2.243464 4.206379 -1.111883 0.894481 1.984185 -0.479355 0.894481 1.984185 -0.479355 0.672351 1.487442 -0.362386 -8.157749 23.784646 2.675072 -15.329069 8.689629 6.843868 -2.169584 4.528249 2.981370 63.362626 15.092455 -29.907111 17.384320 -6.821429 -12.877558 -2.342724 1.567144 -13.923310 -27.584372 10.795298 -10.791200 -27.219346 11.084302 -56.381632 -25.106210 -11.229099 -12.777977 4.426424 11.385132 6.088250 -3.178131 22.352427 -8.598529 -1.064587 -5.500808 6.220426 -1.047503 -4.038318 1.143644 -0.496941 0.140157 -0.235698 -10.767350 13.822731 -1.629765 8.327074 3.054724 -0.443062 1.932926 -4.091019 -0.555322 0.051574 0.040059 0.016287
17.437429 90.431751 20.533128 -28.635069 -12.736894 -0.122846 2.193107 4.234695 -1.113966 0.886206 1.979536 -0.478670 0.886206 1.979536 -0.478670 0.666140 1.483962 -0.361839 -8.140178 23.795895 2.645386 -15.289303 8.703880 6.785283 -2.112279 4.674742 3.009755 63.580187 15.132317 -29.546113 17.424821 -6.649838 -12.848222 -2.293833 1.523249 -13.923642 -27.575429 10.841729 -10.821401 -27.232153 11.075324 -56.385079 -25.086497 -11.255446 -12.792440 4.421915 11.385278 6.095828 -3.217047 22.358890 -8.607464 -1.052732 -5.494413 6.222915 -1.053380 -4.012811 1.123476 -0.458825 0.125339 -0.219553 -10.829214 13.828996 -1.646941 8.371099 3.069881 -0.435923 1.920148 -4.089365 -0.562502 0.049944 0.039858 0.016451
17.440691 90.431756 20.515517 -28.660496 -12.750021 -0.122659 2.167037 4.238882 -1.107785 0.876866 1.978898 -0.479130 0.876866 1.978898 -0.479130 0.659136 1.483491 -0.362153 -8.116212 23.810192 2.621104 -15.239167 8.723791 6.734470 -2.070057 4.961933 3.039390 63.827433 15.043246 -29.322133 17.542987 -6.434872 -12.731211 -2.193623 1.481494 -13.922481 -27.554563 10.877165 -10.847723 -27.253746 11.078288 -56.392794 -25.071735 -11.262133 -12.802519 4.416652 11.381298 6.092380 -3.213399 22.353130 -8.602739 -1.048395 -5.488958 6.225884 -1.074633 -4.000987 1.111817 -0.439450 0.127469 -0.211059 -10.869249 13.827008 -1.657312 8.407910 3.081402 -0.429277 1.945031 -4.088491 -0.569187 0.046445 0.041567 0.016136
17.438694 90.432262 20.500554 -28.683613 -12.781537 -0.123261 2.122467 4.261565 -1.099858 0.864390 1.980702 -0.477721 0.864390 1.980702 -0.477721 0.649777 1.484855 -0.361059 -8.086435 23.825012 2.597808 -15.178820 8.744138 6.683976 -2.064523 5.389837 3.051444 64.103045 14.881386 -29.180596 17.789455 -6.281976 -12.643688 -2.057305 1.433449 -13.896403 -27.517423 10.888121 -10.881390 -27.267472 11.078577 -56.410845 -25.051494 -11.234374 -12.821537 4.412754 11.382629 6.082308 -3.250046 22.370290 -8.606164 -1.012732 -5.492492 6.221691 -1.092813 -3.989338 1.098796 -0.417007 0.129465 -0.200708 -10.924070 13.842124 -1.673398 8.488471 3.101027 -0.420683 1.965457 -4.091575 -0.577879 0.045902 0.040864 0.015232
17.431402 90.431550 20.484345 -28.733208 -12.823226 -0.125844 2.072802 4.304433 -1.080694 0.848901 1.991526 -0.471670 0.848901 1.991526 -0.471670 0.638149 1.492994 -0.356485 -8.046828 23.830629 2.568336 -15.100032 8.745452 6.621185 -2.149426 5.929554 2.992793 64.449774 14.628261 -29.140033 18.165262 -6.182096 -12.531786 -1.910017 1.312569 -13.871747 -27.462340 10.863933 -10.917249 -27.236353 11.052354 -56.427151 -25.035433 -11.177650 -12.860283 4.421302 11.390278 6.083253 -3.260101 22.396406 -8.599074 -0.984786 -5.496006 6.217549 -1.085912 -3.981174 1.079806 -0.393397 0.136738 -0.188544 -10.904896 13.878342 -1.658269 8.574778 3.115961 -0.432287 1.938292 -4.099632 -0.577332 0.045443 0.044695 0.013050
17.424637 90.430807 20.463847 -28.830658 -12.859505 -0.134556 2.046096 4.350262 -1.057835 0.838735 2.008840 -0.465694 0.838735 2.008840 -0.465694 0.630518 1.505995 -0.351993 -8.003664 23.833546 2.544010 -15.016344 8.742148 6.567049 -2.118365 5.970623 2.997659 64.793880 14.461673 -28.773134 18.595471 -5.871061 -12.210651 -1.664384 1.060324 -13.768294 -27.403504 10.812649 -10.919927 -27.182400 11.009690 -56.454959 -25.015056 -11.101946 -12.896158 4.421509 11.386589 6.085991 -3.162003 22.415438 -8.546210 -1.014335 -5.494602 6.209618 -1.089008 -3.966816 1.059795 -0.367777 0.144212 -0.176515 -10.865677 13.917163 -1.633505 8.703613 3.123655 -0.439261 1.877677 -4.107453 -0.575186 0.041864 0.051185 0.007952
17.414981 90.433506 20.448484 -28.920055 -12.957825 -0.141012 2.005845 4.434349 -1.050621 0.838448 2.026428 -0.460967 0.838448 2.026428 -0.460967 0.630300 1.519193 -0.348471 -7.968239 23.848289 2.529466 -14.948059 8.763057 6.530870 -1.981303 6.011261 3.068857 65.125713 14.180505 -28.344353 18.994941 -5.192847 -11.799245 -1.312831 0.756579 -13.576536 -27.363708 10.804684 -10.916785 -27.173638 10.949253 -56.487124 -24.969437 -11.079073 -12.926232 4.413369 11.385529 6.083872 -3.110214 22.490452 -8.523147 -1.010953 -5.488711 6.214172 -1.105543 -3.931351 1.029447 -0.324532 0.127446 -0.157198 -10.858477 14.015732 -1.630881 8.822455 3.134695 -0.449240 1.856661 -4.105961 -0.572470 0.039703 0.045285 0.004528
17.411186 90.436585 20.426142 -29.041691 -13.022127 -0.141453 2.008440 4.487334 -1.043989 0.844465 2.046478 -0.457705 0.844465 2.046478 -0.457705 0.634815 1.534231 -0.346072 -7.947631 23.856048 2.523050 -14.908906 8.774017 6.513576 -1.843405 6.106151 3.169322 65.406345 13.954981 -27.846530 19.435217 -4.503096 -11.562801 -0.875871 0.689383 -13.206601 -27.326037 10.841388 -10.909917 -27.268272 10.893228 -56.488091 -24.929570 -11.137136 -12.941922 4.409429 11.385390 6.075608 -3.032897 22.524485 -8.505936 -1.009421 -5.478702 6.230186 -1.115711 -3.908932 1.013448 -0.322177 0.126649 -0.156320 -10.872741 14.067916 -1.635038 8.946176 3.160860 -0.456169 1.891014 -4.105100 -0.574992 0.038309 0.036183 0.003332
